<svg height="512pt" viewBox="0 -44 512 512" width="512pt" xmlns="http://www.w3.org/2000/svg"><path d="m504 240.113281h-496c-4.425781 0-8-3.574219-8-8 0-4.421875 3.574219-8 8-8h496c4.425781 0 8 3.578125 8 8 0 4.425781-3.574219 8-8 8zm0 0"/><path d="m8 392.160156c-4.425781 0-8-3.574218-8-8v-152.046875c0-4.421875 3.574219-8 8-8s8 3.578125 8 8v152.046875c0 4.425782-3.574219 8-8 8zm0 0"/><path d="m40 424.160156c-22.054688 0-40-17.941406-40-40 0-4.421875 3.574219-8 8-8s8 3.578125 8 8c0 13.234375 10.769531 24 24 24 4.425781 0 8 3.578125 8 8 0 4.425782-3.574219 8-8 8zm0 0"/><path d="m504 392.160156c-4.425781 0-8-3.574218-8-8v-152.046875c0-4.421875 3.574219-8 8-8s8 3.578125 8 8v152.046875c0 4.425782-3.574219 8-8 8zm0 0"/><path d="m472 424.160156c-4.425781 0-8-3.574218-8-8 0-4.421875 3.574219-8 8-8 13.230469 0 24-10.765625 24-24 0-4.421875 3.574219-8 8-8s8 3.578125 8 8c0 22.058594-17.945312 40-40 40zm0 0"/><path d="m472 424.160156h-432c-4.425781 0-8-3.574218-8-8 0-4.421875 3.574219-8 8-8h432c4.425781 0 8 3.578125 8 8 0 4.425782-3.574219 8-8 8zm0 0"/><path d="m48.023438 240.113281c-4.421876 0-8-3.574219-8-8v-96.0625c0-4.425781 3.578124-8 8-8 4.425781 0 8 3.574219 8 8v96.0625c0 4.425781-3.574219 8-8 8zm0 0"/><path d="m80.03125 240.113281c-4.421875 0-8-3.574219-8-8v-96.0625c0-4.425781 3.578125-8 8-8 4.425781 0 8 3.574219 8 8v96.0625c0 4.425781-3.574219 8-8 8zm0 0"/><path d="m80.03125 144.050781h-32.007812c-4.421876 0-8-3.578125-8-8 0-4.425781 3.578124-8 8-8h32.007812c4.425781 0 8 3.574219 8 8 0 4.421875-3.574219 8-8 8zm0 0"/><path d="m64.023438 144.050781c-4.421876 0-8-3.578125-8-8v-60.800781l-5.871094-6.34375c-1.457032-1.566406-2.214844-3.648438-2.128906-5.785156.089843-2.136719 1.03125-4.152344 2.617187-5.574219l1.574219-1.441406-1.671875-1.566407c-3.191407-2.992187-3.390625-8.007812-.429688-11.234374l2.75-3.015626-2.414062-2.335937c-1.539063-1.488281-2.417969-3.519531-2.441407-5.65625-.015624-2.136719.816407-4.191406 2.3125-5.710937l2.421876-2.449219-2.382813-2.382813c-3.113281-3.113281-3.128906-8.160156-.03125-11.28125l8.007813-8.09375c3.105468-3.144531 8.175781-3.160156 11.3125-.066406 3.144531 3.113281 3.167968 8.167969.0625 11.3125l-2.40625 2.441406 2.375 2.375c3.113281 3.113282 3.128906 8.152344.039062 11.28125l-2.335938 2.359375 2.203126 2.128907c3.117187 3.015624 3.261718 7.949218.335937 11.152343l-2.664063 2.917969 2.230469 2.097656c1.632813 1.519532 2.542969 3.664063 2.527344 5.894532-.015625 2.234374-.96875 4.359374-2.625 5.855468l-2.023437 1.832032 2.511718 2.714843c1.378906 1.476563 2.136719 3.421875 2.136719 5.4375v63.9375c.007813 4.421875-3.566406 8-7.992187 8zm0 0"/><path d="m112 240.113281c-4.425781 0-8-3.574219-8-8v-96.0625c0-4.425781 3.574219-8 8-8s8 3.574219 8 8v96.0625c0 4.425781-3.574219 8-8 8zm0 0"/><path d="m144.007812 240.113281c-4.421874 0-8-3.574219-8-8v-96.0625c0-4.425781 3.578126-8 8-8 4.425782 0 8 3.574219 8 8v96.0625c0 4.425781-3.574218 8-8 8zm0 0"/><path d="m144.007812 144.050781h-32.007812c-4.425781 0-8-3.578125-8-8 0-4.425781 3.574219-8 8-8h32.007812c4.425782 0 8 3.574219 8 8 0 4.421875-3.574218 8-8 8zm0 0"/><path d="m128 144.050781c-4.425781 0-8-3.578125-8-8v-103.839843c0-2.105469.832031-4.128907 2.304688-5.625l2.421874-2.449219-2.382812-2.382813c-1.503906-1.503906-2.34375-3.527344-2.34375-5.65625v-8.09375c0-4.425781 3.574219-7.99999975 8-7.99999975s8 3.57421875 8 7.99999975v4.78125l5.664062 5.65625c3.113282 3.113282 3.128907 8.152344.039063 11.28125l-5.703125 5.765625v100.5625c0 4.421875-3.574219 8-8 8zm0 0"/><path d="m175.976562 240.113281c-4.425781 0-8-3.574219-8-8v-96.0625c0-4.425781 3.574219-8 8-8 4.421876 0 8 3.574219 8 8v96.0625c0 4.425781-3.578124 8-8 8zm0 0"/><path d="m207.984375 240.113281c-4.425781 0-8-3.574219-8-8v-96.0625c0-4.425781 3.574219-8 8-8 4.421875 0 8 3.574219 8 8v96.0625c0 4.425781-3.578125 8-8 8zm0 0"/><path d="m207.984375 144.050781h-32.007813c-4.425781 0-8-3.578125-8-8 0-4.425781 3.574219-8 8-8h32.007813c4.421875 0 8 3.574219 8 8 0 4.421875-3.578125 8-8 8zm0 0"/><path d="m191.976562 144.050781c-4.425781 0-8-3.578125-8-8v-72.578125c0-2.253906.953126-4.40625 2.625-5.917968l1.574219-1.441407-1.671875-1.566406c-3.191406-2.992187-3.390625-8.007813-.433594-11.234375l5.90625-6.460938v-9.441406l-5.65625-5.65625c-1.503906-1.503906-2.34375-3.527344-2.34375-5.65625v-8.09375c0-4.425781 3.574219-7.99999975 8-7.99999975 4.421876 0 8 3.57421875 8 7.99999975v4.78125l5.664063 5.65625c1.503906 1.503906 2.34375 3.527344 2.34375 5.65625v15.855469c0 2-.753906 3.929687-2.105469 5.402344l-2.664062 2.917969 2.234375 2.097656c1.628906 1.519531 2.542969 3.664062 2.527343 5.894531-.015624 2.234375-.96875 4.359375-2.625 5.855469l-5.382812 4.890625v69.03125c.007812 4.429687-3.570312 8.007812-7.992188 8.007812zm0 0"/><path d="m239.953125 240.113281c-4.425781 0-8-3.574219-8-8v-96.0625c0-4.425781 3.574219-8 8-8 4.421875 0 8 3.574219 8 8v96.0625c0 4.425781-3.578125 8-8 8zm0 0"/><path d="m271.960938 240.113281c-4.425782 0-8-3.574219-8-8v-96.0625c0-4.425781 3.574218-8 8-8 4.421874 0 8 3.574219 8 8v96.0625c0 4.425781-3.578126 8-8 8zm0 0"/><path d="m271.960938 144.050781h-32.007813c-4.425781 0-8-3.578125-8-8 0-4.425781 3.574219-8 8-8h32.007813c4.421874 0 8 3.574219 8 8 0 4.421875-3.578126 8-8 8zm0 0"/><path d="m255.953125 144.050781c-4.425781 0-8-3.578125-8-8v-108.640625l-5.664063-5.65625c-3.113281-3.113281-3.128906-8.160156-.03125-11.28125l8.007813-8.09375c3.101563-3.152344 8.175781-3.167968 11.308594-.066406 3.144531 3.113281 3.167969 8.167969.066406 11.3125l-2.410156 2.441406 2.378906 2.375c1.503906 1.503906 2.34375 3.527344 2.34375 5.65625v111.953125c0 4.421875-3.578125 8-8 8zm0 0"/><path d="m303.929688 240.113281c-4.425782 0-8-3.574219-8-8v-96.0625c0-4.425781 3.574218-8 8-8 4.421874 0 8 3.574219 8 8v96.0625c0 4.425781-3.578126 8-8 8zm0 0"/><path d="m335.9375 240.113281c-4.425781 0-8-3.574219-8-8v-96.0625c0-4.425781 3.574219-8 8-8 4.421875 0 8 3.574219 8 8v96.0625c0 4.425781-3.578125 8-8 8zm0 0"/><path d="m335.9375 144.050781h-32.007812c-4.425782 0-8-3.578125-8-8 0-4.425781 3.574218-8 8-8h32.007812c4.421875 0 8 3.574219 8 8 0 4.421875-3.578125 8-8 8zm0 0"/><path d="m319.929688 144.050781c-4.425782 0-8-3.578125-8-8v-63.9375c0-2.015625.757812-3.960937 2.132812-5.4375l2.511719-2.714843-10.125-9.421876c-3.191407-2.992187-3.394531-8.007812-.433594-11.234374l10.558594-11.222657-10.308594-10.328125c-3.113281-3.113281-3.128906-8.160156-.035156-11.28125l8.007812-8.09375c3.105469-3.152344 8.175781-3.167968 11.3125-.066406 3.144531 3.113281 3.167969 8.167969.066407 11.3125l-2.410157 2.441406 10.425781 10.511719c1.503907 1.519531 2.328126 3.574219 2.304688 5.71875-.027344 2.136719-.898438 4.167969-2.441406 5.65625l-10.34375 10.3125 10.160156 9.28125c1.582031 1.429687 2.519531 3.445313 2.617188 5.574219.09375 2.128906-.671876 4.210937-2.128907 5.785156l-5.871093 6.34375v60.800781c0 4.421875-3.578126 8-8 8zm0 0"/><path d="m367.902344 240.113281c-4.421875 0-8-3.574219-8-8v-96.0625c0-4.425781 3.578125-8 8-8 4.425781 0 8 3.574219 8 8v96.0625c0 4.425781-3.574219 8-8 8zm0 0"/><path d="m399.910156 240.113281c-4.421875 0-8-3.574219-8-8v-96.0625c0-4.425781 3.578125-8 8-8 4.425782 0 8 3.574219 8 8v96.0625c0 4.425781-3.574218 8-8 8zm0 0"/><path d="m399.910156 144.050781h-32.007812c-4.421875 0-8-3.578125-8-8 0-4.425781 3.578125-8 8-8h32.007812c4.425782 0 8 3.574219 8 8 0 4.421875-3.574218 8-8 8zm0 0"/><path d="m383.902344 144.050781c-4.421875 0-8-3.578125-8-8v-60.800781l-5.871094-6.34375c-1.457031-1.566406-2.214844-3.648438-2.128906-5.785156.089844-2.136719 1.035156-4.152344 2.617187-5.574219l5.382813-4.890625v-9.308594l-5.566406-5.394531c-1.535157-1.488281-2.414063-3.519531-2.441407-5.65625-.023437-2.144531.808594-4.191406 2.304688-5.71875l5.703125-5.769531v-12.804688c0-4.425781 3.578125-7.99999975 8-7.99999975 4.425781 0 8 3.57421875 8 7.99999975v16.09375c0 2.105469-.832032 4.128906-2.300782 5.625l-2.335937 2.359375 2.199219 2.128907c1.550781 1.503906 2.4375 3.582031 2.4375 5.75v16.25c0 2.253906-.949219 4.40625-2.621094 5.917968l-2.023438 1.832032 2.511719 2.714843c1.375 1.476563 2.132813 3.421875 2.132813 5.4375v63.9375c0 4.421875-3.574219 8-8 8zm0 0"/><path d="m431.878906 240.113281c-4.421875 0-8-3.574219-8-8v-96.0625c0-4.425781 3.578125-8 8-8 4.425782 0 8 3.574219 8 8v96.0625c0 4.425781-3.574218 8-8 8zm0 0"/><path d="m463.886719 240.113281c-4.421875 0-8-3.574219-8-8v-96.0625c0-4.425781 3.578125-8 8-8 4.425781 0 8 3.574219 8 8v96.0625c0 4.425781-3.574219 8-8 8zm0 0"/><path d="m463.886719 144.050781h-32.007813c-4.421875 0-8-3.578125-8-8 0-4.425781 3.578125-8 8-8h32.007813c4.425781 0 8 3.574219 8 8 0 4.421875-3.574219 8-8 8zm0 0"/><path d="m447.878906 144.050781c-4.421875 0-8-3.578125-8-8v-55.9375c0-2.128906.839844-4.160156 2.34375-5.65625l2.5625-2.550781-2.777344-2.992188c-1.457031-1.566406-2.214843-3.648437-2.128906-5.785156.089844-2.136718 1.03125-4.152344 2.617188-5.574218l1.574218-1.441407-1.671874-1.566406c-3.191407-2.992187-3.390626-8.007813-.429688-11.234375l2.75-3.015625-2.414062-2.335937c-1.535157-1.488282-2.417969-3.519532-2.441407-5.65625-.023437-2.144532.808594-4.191407 2.304688-5.71875l2.425781-2.449219-2.386719-2.382813c-1.503906-1.503906-2.34375-3.527344-2.34375-5.65625v-8.09375c0-4.425781 3.578125-7.99999975 8-7.99999975 4.425781 0 8 3.57421875 8 7.99999975v4.78125l5.664063 5.65625c3.113281 3.113282 3.128906 8.152344.039062 11.28125l-2.320312 2.359375 2.203125 2.128907c3.117187 3.015624 3.261719 7.949218.335937 11.152343l-2.664062 2.917969 2.230468 2.097656c1.632813 1.519532 2.542969 3.664063 2.527344 5.894532-.015625 2.234374-.96875 4.359374-2.621094 5.855468l-2.027343 1.832032 2.511719 2.714843c2.921874 3.160157 2.832031 8.054688-.207032 11.09375l-5.664062 5.65625v52.625c.007812 4.421875-3.566406 8-7.992188 8zm0 0"/><path d="m8 240.113281c-4.425781 0-8-3.574219-8-8v-64c0-4.421875 3.574219-8 8-8s8 3.578125 8 8v64c0 4.425781-3.574219 8-8 8zm0 0"/><path d="m504 240.113281c-4.425781 0-8-3.574219-8-8v-64c0-4.421875 3.574219-8 8-8s8 3.578125 8 8v64c0 4.425781-3.574219 8-8 8zm0 0"/><path d="m48.023438 176.113281h-40.023438c-4.425781 0-8-3.574219-8-8 0-4.421875 3.574219-8 8-8h40.023438c4.425781 0 8 3.578125 8 8 0 4.425781-3.574219 8-8 8zm0 0"/><path d="m504 176.113281h-40.113281c-4.421875 0-8-3.574219-8-8 0-4.421875 3.578125-8 8-8h40.113281c4.425781 0 8 3.578125 8 8 0 4.425781-3.574219 8-8 8zm0 0"/><path d="m431.871094 176.113281h-31.960938c-4.421875 0-8-3.574219-8-8 0-4.421875 3.578125-8 8-8h31.960938c4.425781 0 8 3.578125 8 8 0 4.425781-3.574219 8-8 8zm0 0"/><path d="m367.984375 176.113281h-31.960937c-4.421876 0-8-3.574219-8-8 0-4.421875 3.578124-8 8-8h31.960937c4.421875 0 8 3.578125 8 8 0 4.425781-3.578125 8-8 8zm0 0"/><path d="m304.097656 176.113281h-31.960937c-4.425781 0-8-3.574219-8-8 0-4.421875 3.574219-8 8-8h31.960937c4.421875 0 8 3.578125 8 8 0 4.425781-3.585937 8-8 8zm0 0"/><path d="m240.199219 176.113281h-31.960938c-4.421875 0-8-3.574219-8-8 0-4.421875 3.578125-8 8-8h31.960938c4.425781 0 8 3.578125 8 8 0 4.425781-3.574219 8-8 8zm0 0"/><path d="m176.3125 176.113281h-31.960938c-4.421874 0-8-3.574219-8-8 0-4.421875 3.578126-8 8-8h31.960938c4.421875 0 8 3.578125 8 8 0 4.425781-3.578125 8-8 8zm0 0"/><path d="m112 176.113281h-31.535156c-4.425782 0-8-3.574219-8-8 0-4.421875 3.574218-8 8-8h31.535156c4.425781 0 8 3.578125 8 8 0 4.425781-3.574219 8-8 8zm0 0"/><path d="m432 320.113281h-352c-4.425781 0-8-3.574219-8-8 0-4.421875 3.574219-8 8-8h352c4.425781 0 8 3.578125 8 8 0 4.425781-3.574219 8-8 8zm0 0"/><path d="m352 344.144531h-192c-4.425781 0-8-3.574219-8-8 0-4.421875 3.574219-8 8-8h192c4.425781 0 8 3.578125 8 8 0 4.425781-3.574219 8-8 8zm0 0"/></svg>