<?xml version="1.0"?>
<svg xmlns="http://www.w3.org/2000/svg" viewBox="0 0 64 64" width="512" height="512"><g id="Paint"><path d="M61,2H17a1,1,0,0,0-1,1v9H3a1,1,0,0,0-.986,1.164l4,24A1,1,0,0,0,7,38h5V57a5.006,5.006,0,0,0,5,5H59a3,3,0,0,0,3-3V3A1,1,0,0,0,61,2ZM60,6H58V4h2Zm-9,8a3,3,0,0,0-3,3v6a1,1,0,0,1-2,0V13a3,3,0,0,0-6,0v6a1,1,0,0,1-2,0V4H56V27a1,1,0,0,1-2,0V17A3,3,0,0,0,51,14ZM36,4V6H18V4ZM15,16a3,3,0,0,0-3,3v6a1,1,0,0,1-2,0V14H20v7a1,1,0,0,1-2,0V19A3,3,0,0,0,15,16ZM8,14V25a3,3,0,0,0,6,0V19a1,1,0,0,1,2,0v2a3,3,0,0,0,6,0V14h7.819L27.155,30H6.845L4.181,14ZM26,38h1a1,1,0,0,0,.986-.836L28.516,34H54V48H26ZM7.179,32H26.821l-.666,4H7.845ZM14,57V38h6V57a3,3,0,0,1-6,0Zm45,3H20.974A4.948,4.948,0,0,0,22,57V38h2V49a1,1,0,0,0,1,1H55a1,1,0,0,0,1-1V33a1,1,0,0,0-1-1H28.849l3.137-18.836A1,1,0,0,0,31,12H18V8H36V19a3,3,0,0,0,6,0V13a1,1,0,0,1,2,0V23a3,3,0,0,0,6,0V17a1,1,0,0,1,2,0V27a3,3,0,0,0,6,0V8h2V59A1,1,0,0,1,59,60Z"/></g></svg>
