<?xml version="1.0" encoding="iso-8859-1"?>
<!-- Generator: Adobe Illustrator 19.0.0, SVG Export Plug-In . SVG Version: 6.00 Build 0)  -->
<svg version="1.1" id="Capa_1" xmlns="http://www.w3.org/2000/svg" xmlns:xlink="http://www.w3.org/1999/xlink" x="0px" y="0px"
	 viewBox="0 0 488 488" style="enable-background:new 0 0 488 488;" xml:space="preserve">
<path style="fill:#FFA64D;" d="M0,0c0,0,128,168,296,216l16-24C240,48,0,0,0,0z"/>
<g>
	<path style="fill:#333333;" d="M472,408v-75.504c0-20.376-8.688-39.88-23.832-53.512L392,228.44v-26.848l-83.616-18.584
		l-21.616,32.424l37.176,74.36l26.232-8.744l49.616,43.424C405.008,329.016,408,335.6,408,342.52V408h-16v80h96v-80H472z
		 M305.232,216.576L315.616,201L376,214.416V229.2l-28.776,35.968l-15.176,5.056L305.232,216.576z M410.336,312.416l-47.312-41.392
		l21.92-27.408l52.512,47.256C449.24,301.488,456,316.648,456,332.496V408h-32v-65.48C424,330.992,419.016,320.016,410.336,312.416z
		 M472,472h-64v-16h48v-16h-48v-16h64V472z"/>
	
		<rect x="244.004" y="118.423" transform="matrix(-0.614 0.7893 -0.7893 -0.614 536.1981 65.8419)" style="fill:#333333;" width="15.992" height="91.216"/>
</g>
<g>
</g>
<g>
</g>
<g>
</g>
<g>
</g>
<g>
</g>
<g>
</g>
<g>
</g>
<g>
</g>
<g>
</g>
<g>
</g>
<g>
</g>
<g>
</g>
<g>
</g>
<g>
</g>
<g>
</g>
</svg>
